<svg id="Layer_1" data-name="Layer 1" xmlns="http://www.w3.org/2000/svg" viewBox="0 0 334 53.61"><defs><style>.cls-1{fill:#fff;}</style></defs><title>logo</title><path class="cls-1" d="M251,325.73l-0.29.29a22.4,22.4,0,0,1-5.87.78c-6.75,0-13.6-3.33-11.45-15.36l5.48-30.82c0.29-2-1.27-3.42-4-2.54l-0.29-.29c3.42-1.66,10.27-3.82,15-3.82,5.58,0,7.83,2.05,6.46,8.71l-5.38,22.21L251,305c6.56-25,13.11-31.79,23.09-31.79,8.71,0,12.52,5.48,12.52,11.35,0,6.55-4.89,13.11-13.6,13.11a9.7,9.7,0,0,1-3.39-.59,5.23,5.23,0,0,1-.91-9.23,8.24,8.24,0,0,0,3.52-6.81c0-3-1.57-4.7-3.82-4.7-6.06,0-12.13,11.94-16.34,28.86C250.42,311.93,247.69,324.07,251,325.73Z" transform="translate(-233 -273.2)"/><path class="cls-1" d="M323.31,281.12c0-3.82-2.35-6.36-5.67-6.36-7.53,0-12.91,11.84-13.5,21.72-0.59,10.37,3.13,19.47,14,19.47A19.65,19.65,0,0,0,333.19,309l0.59,0.29c-6.16,10.17-16.53,17.41-27.88,17.41-11.84,0-20.25-7.83-20.25-20.93,0-16.73,14.28-31.79,32.87-31.79,7.63,0,18.78,1.86,18.78,11,0,7.24-8.41,16.73-32.48,10.37l0.1-.39C318.12,295.6,323.31,288.07,323.31,281.12Z" transform="translate(-233 -273.2)"/><path class="cls-1" d="M408.22,274c6.94,0,18.78,2.35,18.78,12.13a11,11,0,0,1-11.15,11,8.48,8.48,0,0,1-5.29-1.68c-2.71-2.15-2.28-6.26.5-8.32a7.42,7.42,0,0,0,3-5.94c0-3.33-2.25-6.36-6.65-6.36-9.68,0-13.69,15.65-13.69,24,0,11.74,6.26,17.22,14,17.22A19.79,19.79,0,0,0,422.9,309l0.59,0.29c-6.95,11.64-18.2,17.41-28.08,17.41-10.86,0-20.05-6.95-20.05-20.74C375.35,288.95,389.64,274,408.22,274Z" transform="translate(-233 -273.2)"/><path class="cls-1" d="M449.31,305.09c-1.66,6.75-4.4,19-1.08,20.64l-0.29.29a54.78,54.78,0,0,1-8.22.78c-7.73,0-11.25-3.33-9.1-15.36l5.48-30.82c0.29-2-1.27-3.42-4-2.54l-0.29-.29c3.42-1.66,10.27-3.82,15-3.82,5.58,0,7.83,2.05,6.46,8.71l-5.38,22.11,0.39,0.1c6.55-25,15.36-30.91,24.16-30.91,12.23,0,11.25,10.37,9.68,16.83l-3.42,14,0.39,0.1c6.55-25,15.36-30.91,24.16-30.91,12.23,0,11.45,10.08,10.27,16.83l-2.35,13.89c-1.47,8.41-2.35,19.37,2,21l-0.29.29a35.47,35.47,0,0,1-7.14.78c-8.12,0-14.87-3.52-12.91-15.85l3.91-24.26c0.69-4.6.69-7.43-1.66-7.43-5.48,0-11.25,11.25-14.87,25.83-1.66,6.75-4.4,19-1.08,20.64l-0.29.29a54.78,54.78,0,0,1-8.22.78c-7.73,0-11.15-3.42-8.61-15.85l3.91-24.26c0.69-4.6.69-7.43-1.66-7.43C458.7,279.26,452.93,290.51,449.31,305.09Z" transform="translate(-233 -273.2)"/><path class="cls-1" d="M516.13,316.44A9.11,9.11,0,0,1,527,307.21a5.21,5.21,0,0,1,2.6,8.71,6.85,6.85,0,0,0-1.88,4.72c0,3.13,2.05,5.19,9.1,5.19,4.5,0,15-1,15-7.43,0-9.68-30.52-9.2-30.52-25.63,0-13.5,15.07-18.78,27.29-18.78,8.12,0,18.49,1.86,18.49,9.29a8.22,8.22,0,0,1-8.12,8.41h-0.1a4.87,4.87,0,0,1-3.4-8.17,5.34,5.34,0,0,0,1.55-3.67c0-3.33-3.82-5-9.59-5-4.4,0-11.05,1.86-11.05,7.53,0,9.78,30,7.83,30,24.26,0,14.19-16.92,20.05-30.13,20.05C527.28,326.71,516.13,324.85,516.13,316.44Z" transform="translate(-233 -273.2)"/><circle class="cls-1" cx="123.33" cy="26.8" r="8.67"/></svg>